# xmcd CD database file
#
# Track frame offsets:
#	150
#	12858
#	26025
#	38728
#	50310
#	62288
#	73263
#	85210
#	96645
#	110207
#	123855
#	137900
#	150802
#	163340
#	174830
#	185745
#	199125
#	210237
#
# Disc length: 2970 seconds
#
# Revision: 0
# Processed by: cddbd v1.5.2PL0 Copyright (c) Steve Scherf et al.
# Submitted via: CDex 1.77
#
DISCID=f50b9812
DTITLE=Hank Williams - Sing me a blue song
DYEAR=1949
DGENRE=Country
TTITLE0=I'm so lonesome I could cry
TTITLE1=A house whitout love
TTITLE2=I just don't like this kind of livin'
TTITLE3=My bucket's got a hole in it
TTITLE4=Long gone lonesome blues
TTITLE5=Why don't you love me
TTITLE6=Why should we try anymore
TTITLE7=My son calls another man daddy
TTITLE8=Too many parties and too many pals
TTITLE9=Beyond the sunset
TTITLE10=The funeral
TTITLE11=Everything's okay
TTITLE12=They'll never take her love from me
TTITLE13=Nobody's lonesome for me
TTITLE14=Moanin' the blues
TTITLE15=Help me understand
TTITLE16=No, no Joe
TTITLE17=Cold, cold heart
EXTD=YEAR: 1949
EXTT0=
EXTT1=
EXTT2=
EXTT3=
EXTT4=
EXTT5=
EXTT6=
EXTT7=
EXTT8=
EXTT9=
EXTT10=
EXTT11=
EXTT12=
EXTT13=
EXTT14=
EXTT15=
EXTT16=
EXTT17=
PLAYORDER=
